<?xml version="1.0" encoding="UTF-8"?>
<svg id="Layer_1" xmlns="http://www.w3.org/2000/svg" width="7.7cm" height="7.6cm" version="1.1" viewBox="0 0 217.5 216.2">
  <!-- Generator: Adobe Illustrator 29.7.1, SVG Export Plug-In . SVG Version: 2.1.1 Build 8)  -->
  <path d="M0,0h217.1v217.1H0s0-217.1,0-217.1ZM140.8,97.1c8.8-2.4,14.5-12.8,13.3-21.5-1.7-13-12.1-19.1-24.6-18.5-6.6-8.6-16.8-12.4-27.5-10.1s-11.3,5.9-14.9,10.1c-8.7-1.2-17.5,1.7-22.2,9.4s-4.4,16,.4,23,5.5,5.7,9.5,7l.2.2c-.3,5.4.4,11.2,0,16.5s-1.7,4.6-2.5,7c-5.8,16.1-.3,33.5,14,42.8,12.5,8.1,27.9,8.8,41,1.6,3.8-2.1,11.1-7.8,12.5-11.9s-2.6-6.2-5.7-5.5-.2.3-.3.4c-2.2,1.2-4.1,4.3-6.2,6.1-25.1,21.9-62.3-8.4-43.8-37,8.8-13.5,28.3-16.2,41.5-7.7s5.9,5.9,7.9,6.5c3.2.9,6.6-1.3,7.2-4.5v-14Z" fill="#418489"/>
  <path d="M132.7,103.8c0,0,.5.4-.1.3-14.4-11.5-36-10.9-49.9,1.1v-12.4c0-1.7-4-2.5-5.2-3-13.8-5.9-8.1-25.8,6.8-24.8,1.8.1,4.1,1.2,5.8.5s4.7-5.1,6.6-6.8c7.6-6.8,20-5.5,26.4,2.2s2.1,3.8,3.6,4.5,2.9,0,4.6-.2c4.9-.4,9.6,1,12.8,4.9,4.7,6,2.8,16-4.1,19.4s-7.1,1.8-7.1,3.7c0,3.5-.2,7.2,0,10.6Z" fill="#418489"/>
</svg>