<?xml version="1.0" encoding="UTF-8"?>
<svg id="Layer_1" xmlns="http://www.w3.org/2000/svg" width="15.5cm" height="20.8cm" version="1.1" viewBox="0 0 440.5 589">
  <!-- Generator: Adobe Illustrator 29.7.1, SVG Export Plug-In . SVG Version: 2.1.1 Build 8)  -->
  <path d="M199.4,585.3c-5.1-2.9-19.9-4.8-27.5-7-96-27.3-151.9-121.2-121.3-218.7,4.2-13.3,11.5-25.2,14.4-38.6v-78.9c0-3-3.4-2.3-5.6-3.3-11.7-5.3-22.5-11.3-31.3-20.7C-29.4,155.8,13.1,55.7,97.6,52.5s19,2.5,24.6.6,12.2-12.6,14.9-15.1C168,10.2,198.5-.6,240.5,4.7c32.5,4.1,62.5,24.2,82.3,49.7,57.6-3.8,106.1,25.6,115,85,6.2,41.5-20.4,91.7-62.3,103.2-1.9,2.6.4,55.3-.6,64.4-2,18.1-22.4,30-38.9,21.2-6.3-3.4-14.1-13.9-19.9-19.1-58-50.6-160.4-42-205.2,21.8-94.6,134.5,82.1,284.6,203.2,179.2,8.2-7.2,21.6-26,30-29s17.2-.5,24,6.9c11.1,12.1-.4,25.6-8.5,35.6-29.3,35.9-78.2,57.3-124,61-4,.3-34.7,1.6-36.2.7ZM101.1,222.1v58.5c65.8-56.3,167.6-59.2,235.5-5,3.1.3.5-1.1.5-1.5v-50c0-9,27.4-14.1,34.4-17.6,37.1-18.8,41.5-74.9,9.1-100.9-15.9-12.7-31.2-14.5-50.7-13.7s-6.5,2.4-7.5,2.7c-1.9.5-8.1,1.5-9.6,1.1s-.5-2-1.3-2-1.6,1-2.2.8-6.7-6.9-7.6-7.9c-3.9-4.9-6.9-11-11.1-15.9-30.4-35.9-88-41-123.5-9.5-7.9,7-13.1,15.5-20,23-14.1,15.4-17.4,8.8-35,7-74.7-7.7-102.5,89.1-33.7,117.7,7,2.9,21.1,4.4,22.7,13.3Z" fill="#408589"/>
</svg>