<?xml version="1.0" standalone="no"?>
<!DOCTYPE svg PUBLIC "-//W3C//DTD SVG 20010904//EN"
 "http://www.w3.org/TR/2001/REC-SVG-20010904/DTD/svg10.dtd">
<svg version="1.0" xmlns="http://www.w3.org/2000/svg"
 width="1024.000000pt" height="1024.000000pt" viewBox="0 0 1024.000000 1024.000000"
 preserveAspectRatio="xMidYMid meet">

<g transform="translate(0.000000,1024.000000) scale(0.100000,-0.100000)"
fill="#000000" stroke="none">
<path d="M0 5120 l0 -5120 5120 0 5120 0 0 5120 0 5120 -5120 0 -5120 0 0
-5120z m5320 2915 c128 -19 207 -45 333 -109 165 -84 301 -190 409 -319 l49
-59 102 1 c291 4 585 -103 774 -282 68 -64 162 -204 203 -305 77 -184 107
-399 76 -552 -39 -189 -92 -303 -232 -491 -41 -55 -84 -100 -121 -126 -64 -45
-177 -104 -235 -122 l-38 -13 0 -332 c0 -388 -2 -399 -81 -470 -68 -61 -112
-80 -184 -80 -87 0 -136 26 -230 123 -181 188 -415 319 -680 382 -243 57 -581
41 -825 -41 -351 -117 -595 -335 -767 -685 -185 -377 -179 -793 19 -1177 192
-375 550 -639 968 -714 129 -24 374 -24 493 0 337 65 630 240 852 506 67 80
109 108 176 117 69 10 103 -4 167 -65 94 -91 94 -152 1 -287 -375 -542 -1185
-824 -1871 -651 -663 167 -1163 645 -1318 1260 -19 74 -34 169 -42 266 -26
319 32 631 170 920 l45 95 4 428 c3 357 2 427 -10 427 -7 0 -65 26 -128 57
-98 49 -126 69 -200 143 -128 127 -202 246 -253 407 -90 287 -39 586 147 863
130 193 301 306 577 382 75 20 107 23 262 22 l176 0 114 111 c170 167 396 310
554 350 144 36 380 45 544 20z"/>
<path d="M5024 7669 c-245 -18 -415 -124 -638 -394 -76 -91 -134 -135 -182
-135 -18 0 -66 7 -106 16 -42 10 -120 17 -183 17 -95 1 -121 -3 -188 -26 -114
-40 -184 -82 -262 -161 -120 -120 -175 -254 -175 -421 1 -290 157 -492 455
-585 87 -28 128 -52 143 -85 8 -18 12 -117 12 -322 l0 -296 43 37 c170 146
464 291 720 357 243 62 573 66 842 9 242 -50 499 -162 695 -302 l55 -39 5 264
c5 247 6 266 25 287 28 31 75 53 180 85 126 38 196 78 263 150 161 173 220
388 163 590 -58 206 -187 341 -403 421 -62 23 -90 27 -183 28 -60 1 -151 -5
-201 -13 -126 -20 -145 -10 -241 130 -178 259 -383 371 -713 393 -19 1 -76 -1
-126 -5z"/>
</g>
</svg>
